<svg width="25" height="24" viewBox="0 0 25 24" fill="none" xmlns="http://www.w3.org/2000/svg">
<path d="M23.06 12.25C23.06 11.47 22.99 10.72 22.86 10H12.5V14.255H18.42C18.165 15.63 17.39 16.795 16.225 17.575V20.335H19.78C21.86 18.42 23.06 15.6 23.06 12.25Z" fill="#4285F4"/>
<path d="M12.4999 23C15.4699 23 17.9599 22.015 19.7799 20.335L16.2249 17.575C15.2399 18.235 13.9799 18.625 12.4999 18.625C9.63492 18.625 7.20992 16.69 6.34492 14.09H2.66992V16.94C4.47992 20.535 8.19992 23 12.4999 23Z" fill="#34A853"/>
<path d="M6.345 14.09C6.125 13.43 6 12.725 6 12C6 11.275 6.125 10.57 6.345 9.91V7.06H2.67C1.9 8.59286 1.49932 10.2846 1.5 12C1.5 13.775 1.925 15.455 2.67 16.94L6.345 14.09Z" fill="#FBBC05"/>
<path d="M12.4999 5.375C14.1149 5.375 15.5649 5.93 16.7049 7.02L19.8599 3.865C17.9549 2.09 15.4649 1 12.4999 1C8.19992 1 4.47992 3.465 2.66992 7.06L6.34492 9.91C7.20992 7.31 9.63492 5.375 12.4999 5.375Z" fill="#EA4335"/>
</svg>
